<?xml version="1.0" encoding="UTF-8"?>
<svg xmlns="http://www.w3.org/2000/svg" xmlns:xlink="http://www.w3.org/1999/xlink" width="px" height="px" viewBox="0 0 47 7" version="1.1">
<g id="surface1">
<path style=" stroke:none;fill-rule:nonzero;fill:rgb(35.294118%,16.078431%,89.411765%);fill-opacity:1;" d="M 23.324219 0.914062 L 21.589844 2.328125 L 22.722656 2.328125 L 22.722656 6.921875 L 23.324219 6.433594 Z M 23.324219 0.914062 "/>
<path style=" stroke:none;fill-rule:nonzero;fill:rgb(35.294118%,16.078431%,89.411765%);fill-opacity:1;" d="M 23.824219 6.023438 L 25.589844 4.578125 L 24.425781 4.578125 L 24.425781 0.0859375 L 23.824219 0.503906 Z M 23.824219 6.023438 "/>
<path style=" stroke:none;fill-rule:nonzero;fill:rgb(35.294118%,16.078431%,89.411765%);fill-opacity:1;" d="M 45.671875 1.738281 C 45.875 1.84375 46.019531 1.929688 46.105469 2.003906 L 46.730469 0.8125 C 46.417969 0.621094 46.042969 0.449219 45.601562 0.296875 C 45.167969 0.144531 44.703125 0.0703125 44.199219 0.0703125 C 43.71875 0.0703125 43.273438 0.148438 42.867188 0.308594 C 42.464844 0.46875 42.144531 0.707031 41.90625 1.019531 C 41.671875 1.332031 41.558594 1.71875 41.558594 2.183594 C 41.558594 2.703125 41.722656 3.101562 42.050781 3.382812 C 42.386719 3.652344 42.898438 3.878906 43.585938 4.054688 C 44.136719 4.199219 44.582031 4.332031 44.917969 4.449219 C 45.261719 4.5625 45.433594 4.75 45.433594 5.015625 C 45.433594 5.40625 45.066406 5.601562 44.328125 5.601562 C 43.960938 5.601562 43.613281 5.558594 43.285156 5.46875 C 42.957031 5.382812 42.667969 5.273438 42.421875 5.144531 C 42.183594 5.019531 42.007812 4.902344 41.90625 4.796875 L 41.257812 6.058594 C 41.671875 6.320312 42.148438 6.53125 42.6875 6.683594 C 43.222656 6.835938 43.761719 6.910156 44.304688 6.910156 C 44.777344 6.910156 45.21875 6.847656 45.625 6.71875 C 46.035156 6.582031 46.363281 6.367188 46.609375 6.070312 C 46.867188 5.765625 46.992188 5.367188 46.992188 4.871094 C 46.992188 4.460938 46.898438 4.132812 46.707031 3.886719 C 46.523438 3.628906 46.253906 3.425781 45.902344 3.273438 C 45.558594 3.121094 45.148438 2.984375 44.679688 2.867188 C 44.140625 2.738281 43.734375 2.621094 43.453125 2.519531 C 43.183594 2.414062 43.046875 2.238281 43.046875 1.992188 C 43.046875 1.566406 43.421875 1.355469 44.171875 1.355469 C 44.453125 1.355469 44.726562 1.394531 44.988281 1.472656 C 45.253906 1.546875 45.480469 1.632812 45.671875 1.738281 Z M 45.671875 1.738281 "/>
<path style=" stroke:none;fill-rule:evenodd;fill:rgb(35.294118%,16.078431%,89.411765%);fill-opacity:1;" d="M 33.046875 6.875 C 32.515625 6.875 32.039062 6.78125 31.605469 6.597656 C 31.171875 6.40625 30.800781 6.148438 30.488281 5.832031 C 30.175781 5.503906 29.9375 5.132812 29.769531 4.726562 C 29.601562 4.316406 29.515625 3.898438 29.515625 3.464844 C 29.515625 3.027344 29.605469 2.601562 29.78125 2.195312 C 29.957031 1.785156 30.207031 1.425781 30.527344 1.113281 C 30.84375 0.792969 31.222656 0.542969 31.652344 0.359375 C 32.085938 0.175781 32.558594 0.0820312 33.070312 0.0820312 C 33.597656 0.0820312 34.078125 0.183594 34.507812 0.382812 C 34.941406 0.574219 35.308594 0.835938 35.613281 1.164062 C 35.925781 1.480469 36.164062 1.847656 36.332031 2.253906 C 36.5 2.664062 36.585938 3.078125 36.585938 3.503906 C 36.585938 3.941406 36.496094 4.367188 36.320312 4.773438 C 36.144531 5.175781 35.898438 5.535156 35.578125 5.855469 C 35.265625 6.167969 34.894531 6.414062 34.460938 6.597656 C 34.03125 6.78125 33.558594 6.875 33.046875 6.875 Z M 30.980469 3.476562 C 30.980469 3.839844 31.066406 4.183594 31.234375 4.511719 C 31.402344 4.832031 31.636719 5.089844 31.941406 5.289062 C 32.253906 5.492188 32.625 5.589844 33.058594 5.589844 C 33.496094 5.589844 33.871094 5.484375 34.171875 5.277344 C 34.476562 5.0625 34.710938 4.792969 34.871094 4.472656 C 35.027344 4.144531 35.109375 3.808594 35.109375 3.464844 C 35.109375 3.105469 35.027344 2.765625 34.859375 2.445312 C 34.691406 2.125 34.449219 1.871094 34.136719 1.679688 C 33.832031 1.476562 33.46875 1.378906 33.046875 1.378906 C 32.605469 1.378906 32.230469 1.480469 31.917969 1.691406 C 31.613281 1.898438 31.382812 2.164062 31.222656 2.480469 C 31.0625 2.800781 30.980469 3.132812 30.980469 3.476562 Z M 30.980469 3.476562 "/>
<path style=" stroke:none;fill-rule:evenodd;fill:rgb(35.294118%,16.078431%,89.411765%);fill-opacity:1;" d="M 0 6.828125 L 2.929688 0.117188 L 4.117188 0.117188 L 7.03125 6.828125 L 5.496094 6.828125 L 4.824219 5.253906 L 2.21875 5.253906 L 1.546875 6.828125 Z M 3.527344 1.882812 L 2.542969 3.996094 L 4.476562 3.996094 Z M 3.527344 1.882812 "/>
<path style=" stroke:none;fill-rule:nonzero;fill:rgb(35.294118%,16.078431%,89.411765%);fill-opacity:1;" d="M 12.707031 0.117188 L 14.554688 2.496094 L 16.402344 0.117188 L 17.972656 0.117188 L 15.320312 3.515625 L 17.890625 6.828125 L 16.316406 6.828125 L 14.554688 4.546875 L 12.800781 6.828125 L 11.207031 6.828125 L 13.785156 3.515625 L 11.121094 0.117188 Z M 12.707031 0.117188 "/>
</g>
</svg>
