<?xml version="1.0" encoding="UTF-8"?>
<svg xmlns="http://www.w3.org/2000/svg" xmlns:xlink="http://www.w3.org/1999/xlink" width="px" height="px" viewBox="0 0 30 15" version="1.1">
<defs>
<linearGradient id="linear0" gradientUnits="userSpaceOnUse" x1="262.624" y1="547.206" x2="375.377" y2="432.484" gradientTransform="matrix(0.0617243,0,0,0.0617243,-4.76562,-25.387885)">
<stop offset="0" style="stop-color:rgb(2.745098%,0.392157%,20.784314%);stop-opacity:1;"/>
<stop offset="1" style="stop-color:rgb(38.039216%,17.647059%,31.372549%);stop-opacity:1;"/>
</linearGradient>
</defs>
<g id="surface1">
<path style=" stroke:none;fill-rule:nonzero;fill:url(#linear0);" d="M 12.265625 0.863281 L 17.613281 0.863281 C 18.320312 0.863281 18.890625 1.4375 18.890625 2.140625 L 18.890625 7.523438 C 18.890625 8.226562 18.320312 8.800781 17.613281 8.800781 L 12.265625 8.800781 C 11.558594 8.800781 10.988281 8.226562 10.988281 7.523438 L 10.988281 2.140625 C 10.988281 1.4375 11.558594 0.863281 12.265625 0.863281 Z M 12.265625 0.863281 "/>
<path style=" stroke:none;fill-rule:nonzero;fill:rgb(100%,100%,100%);fill-opacity:1;" d="M 15 4.28125 C 15.199219 4.28125 15.355469 4.238281 15.457031 4.148438 C 15.5625 4.0625 15.613281 3.933594 15.613281 3.761719 C 15.613281 3.589844 15.5625 3.464844 15.457031 3.375 C 15.351562 3.285156 15.199219 3.242188 15 3.242188 L 14.289062 3.242188 L 14.289062 4.28125 L 15 4.28125 M 15.042969 6.429688 C 15.300781 6.429688 15.492188 6.375 15.621094 6.269531 C 15.753906 6.160156 15.816406 6 15.816406 5.78125 C 15.816406 5.570312 15.753906 5.410156 15.625 5.304688 C 15.496094 5.195312 15.300781 5.144531 15.042969 5.144531 L 14.289062 5.144531 L 14.289062 6.429688 L 15.042969 6.429688 M 16.234375 4.664062 C 16.507812 4.742188 16.722656 4.886719 16.871094 5.101562 C 17.023438 5.3125 17.097656 5.574219 17.097656 5.882812 C 17.097656 6.359375 16.9375 6.710938 16.613281 6.945312 C 16.289062 7.175781 15.796875 7.292969 15.136719 7.292969 L 13.011719 7.292969 L 13.011719 2.378906 L 14.933594 2.378906 C 15.621094 2.378906 16.121094 2.480469 16.429688 2.6875 C 16.738281 2.894531 16.894531 3.222656 16.894531 3.679688 C 16.894531 3.917969 16.839844 4.121094 16.726562 4.289062 C 16.613281 4.457031 16.449219 4.582031 16.234375 4.664062 "/>
<path style=" stroke:none;fill-rule:nonzero;fill:rgb(13.72549%,5.882353%,23.921569%);fill-opacity:1;" d="M 3.855469 11.441406 L 3.855469 12.773438 L 4.648438 12.773438 C 4.914062 12.773438 5.109375 12.71875 5.234375 12.613281 C 5.363281 12.5 5.429688 12.332031 5.429688 12.105469 C 5.429688 11.882812 5.363281 11.710938 5.234375 11.601562 C 5.109375 11.496094 4.914062 11.441406 4.648438 11.441406 L 3.855469 11.441406 M 3.855469 9.941406 L 3.855469 11.039062 L 4.585938 11.039062 C 4.828125 11.039062 5.007812 10.996094 5.125 10.90625 C 5.242188 10.8125 5.300781 10.675781 5.300781 10.492188 C 5.300781 10.304688 5.242188 10.167969 5.125 10.078125 C 5.003906 9.988281 4.828125 9.941406 4.585938 9.941406 L 3.855469 9.941406 M 3.363281 9.535156 L 4.625 9.535156 C 5 9.535156 5.289062 9.613281 5.492188 9.769531 C 5.695312 9.925781 5.796875 10.148438 5.796875 10.4375 C 5.796875 10.660156 5.746094 10.835938 5.640625 10.96875 C 5.539062 11.101562 5.382812 11.183594 5.183594 11.214844 C 5.425781 11.269531 5.613281 11.378906 5.746094 11.542969 C 5.882812 11.707031 5.945312 11.910156 5.945312 12.160156 C 5.945312 12.484375 5.835938 12.734375 5.613281 12.914062 C 5.394531 13.089844 5.078125 13.179688 4.667969 13.179688 L 3.359375 13.179688 L 3.359375 9.535156 "/>
<path style=" stroke:none;fill-rule:nonzero;fill:rgb(13.72549%,5.882353%,23.921569%);fill-opacity:1;" d="M 7.804688 10.761719 C 7.582031 10.753906 7.367188 10.859375 7.234375 11.042969 C 7.09375 11.230469 7.023438 11.488281 7.023438 11.816406 C 7.023438 12.144531 7.09375 12.402344 7.234375 12.589844 C 7.371094 12.777344 7.5625 12.871094 7.804688 12.871094 C 8.03125 12.878906 8.246094 12.769531 8.375 12.585938 C 8.515625 12.398438 8.585938 12.140625 8.585938 11.816406 C 8.585938 11.492188 8.515625 11.234375 8.375 11.046875 C 8.234375 10.855469 8.046875 10.761719 7.804688 10.761719 M 7.804688 10.378906 C 8.195312 10.378906 8.507812 10.507812 8.726562 10.761719 C 8.945312 11.015625 9.0625 11.367188 9.0625 11.816406 C 9.0625 12.265625 8.949219 12.617188 8.726562 12.871094 C 8.503906 13.125 8.195312 13.25 7.804688 13.25 C 7.414062 13.25 7.105469 13.125 6.882812 12.871094 C 6.660156 12.617188 6.550781 12.265625 6.550781 11.816406 C 6.550781 11.367188 6.660156 11.015625 6.882812 10.761719 C 7.105469 10.507812 7.410156 10.378906 7.804688 10.378906 "/>
<path style=" stroke:none;fill-rule:nonzero;fill:rgb(13.72549%,5.882353%,23.921569%);fill-opacity:1;" d="M 10.839844 10.761719 C 10.613281 10.753906 10.398438 10.859375 10.265625 11.042969 C 10.125 11.230469 10.058594 11.488281 10.058594 11.816406 C 10.058594 12.144531 10.125 12.402344 10.265625 12.589844 C 10.402344 12.777344 10.59375 12.871094 10.839844 12.871094 C 11.0625 12.878906 11.277344 12.769531 11.40625 12.585938 C 11.546875 12.398438 11.617188 12.140625 11.617188 11.816406 C 11.617188 11.492188 11.546875 11.234375 11.40625 11.046875 C 11.265625 10.855469 11.078125 10.761719 10.839844 10.761719 M 10.839844 10.378906 C 11.226562 10.378906 11.539062 10.507812 11.757812 10.761719 C 11.980469 11.015625 12.09375 11.367188 12.09375 11.816406 C 12.09375 12.265625 11.980469 12.617188 11.757812 12.871094 C 11.535156 13.125 11.226562 13.25 10.839844 13.25 C 10.445312 13.25 10.136719 13.125 9.914062 12.871094 C 9.691406 12.617188 9.582031 12.265625 9.582031 11.816406 C 9.582031 11.367188 9.691406 11.015625 9.914062 10.761719 C 10.136719 10.507812 10.445312 10.378906 10.839844 10.378906 "/>
<path style=" stroke:none;fill-rule:nonzero;fill:rgb(13.72549%,5.882353%,23.921569%);fill-opacity:1;" d="M 13.253906 9.667969 L 13.253906 10.445312 L 14.179688 10.445312 L 14.179688 10.792969 L 13.253906 10.792969 L 13.253906 12.277344 C 13.253906 12.503906 13.285156 12.644531 13.34375 12.710938 C 13.40625 12.773438 13.53125 12.804688 13.71875 12.804688 L 14.179688 12.804688 L 14.179688 13.179688 L 13.71875 13.179688 C 13.371094 13.179688 13.132812 13.117188 13 12.988281 C 12.867188 12.859375 12.800781 12.621094 12.800781 12.28125 L 12.800781 10.792969 L 12.46875 10.792969 L 12.46875 10.445312 L 12.800781 10.445312 L 12.800781 9.671875 L 13.25 9.671875 M 16.488281 10.527344 L 16.488281 10.953125 C 16.363281 10.886719 16.230469 10.839844 16.09375 10.804688 C 15.957031 10.773438 15.816406 10.757812 15.667969 10.757812 C 15.445312 10.757812 15.277344 10.789062 15.164062 10.855469 C 15.054688 10.925781 15 11.027344 15 11.164062 C 15 11.269531 15.039062 11.351562 15.117188 11.410156 C 15.199219 11.46875 15.359375 11.527344 15.601562 11.578125 L 15.753906 11.613281 C 16.074219 11.679688 16.296875 11.777344 16.433594 11.902344 C 16.566406 12.027344 16.632812 12.199219 16.632812 12.421875 C 16.640625 12.664062 16.527344 12.890625 16.332031 13.027344 C 16.132812 13.175781 15.855469 13.25 15.507812 13.25 C 15.359375 13.25 15.207031 13.238281 15.046875 13.207031 C 14.890625 13.183594 14.722656 13.136719 14.546875 13.082031 L 14.546875 12.617188 C 14.714844 12.703125 14.878906 12.769531 15.039062 12.8125 C 15.195312 12.855469 15.355469 12.875 15.515625 12.875 C 15.726562 12.875 15.890625 12.839844 16.003906 12.769531 C 16.121094 12.695312 16.175781 12.59375 16.175781 12.460938 C 16.175781 12.339844 16.132812 12.246094 16.050781 12.179688 C 15.96875 12.113281 15.789062 12.054688 15.511719 11.992188 L 15.355469 11.957031 C 15.078125 11.898438 14.875 11.808594 14.753906 11.6875 C 14.628906 11.566406 14.566406 11.398438 14.566406 11.1875 C 14.566406 10.929688 14.660156 10.730469 14.839844 10.589844 C 15.023438 10.449219 15.28125 10.378906 15.617188 10.378906 C 15.773438 10.378906 15.929688 10.390625 16.085938 10.417969 C 16.222656 10.4375 16.359375 10.476562 16.492188 10.527344 M 17.773438 9.667969 L 17.773438 10.445312 L 18.699219 10.445312 L 18.699219 10.792969 L 17.773438 10.792969 L 17.773438 12.277344 C 17.773438 12.503906 17.804688 12.644531 17.863281 12.710938 C 17.925781 12.773438 18.050781 12.804688 18.238281 12.804688 L 18.699219 12.804688 L 18.699219 13.179688 L 18.238281 13.179688 C 17.890625 13.179688 17.652344 13.117188 17.519531 12.988281 C 17.390625 12.859375 17.320312 12.621094 17.320312 12.28125 L 17.320312 10.792969 L 16.992188 10.792969 L 16.992188 10.445312 L 17.320312 10.445312 L 17.320312 9.671875 L 17.773438 9.671875 M 20.851562 10.867188 C 20.796875 10.835938 20.742188 10.816406 20.683594 10.804688 C 20.621094 10.789062 20.554688 10.78125 20.488281 10.78125 C 20.234375 10.78125 20.039062 10.863281 19.902344 11.03125 C 19.769531 11.195312 19.703125 11.429688 19.703125 11.742188 L 19.703125 13.179688 L 19.25 13.179688 L 19.25 10.445312 L 19.703125 10.445312 L 19.703125 10.871094 C 19.796875 10.703125 19.921875 10.582031 20.070312 10.503906 C 20.222656 10.421875 20.40625 10.378906 20.625 10.378906 C 20.65625 10.378906 20.691406 10.382812 20.726562 10.386719 L 20.851562 10.402344 L 20.851562 10.867188 M 22.546875 11.804688 C 22.183594 11.804688 21.933594 11.847656 21.792969 11.929688 C 21.652344 12.011719 21.582031 12.15625 21.582031 12.355469 C 21.582031 12.515625 21.632812 12.640625 21.738281 12.734375 C 21.84375 12.828125 21.988281 12.875 22.167969 12.875 C 22.417969 12.875 22.617188 12.789062 22.765625 12.613281 C 22.917969 12.4375 22.992188 12.199219 22.992188 11.90625 L 22.992188 11.804688 L 22.546875 11.804688 M 23.441406 11.621094 L 23.441406 13.179688 L 22.992188 13.179688 L 22.992188 12.765625 C 22.894531 12.929688 22.761719 13.054688 22.609375 13.132812 C 22.457031 13.210938 22.269531 13.25 22.046875 13.25 C 21.769531 13.25 21.546875 13.171875 21.378906 13.015625 C 21.214844 12.859375 21.132812 12.648438 21.132812 12.386719 C 21.132812 12.078125 21.234375 11.84375 21.441406 11.6875 C 21.648438 11.53125 21.953125 11.453125 22.367188 11.453125 L 22.996094 11.453125 L 22.996094 11.410156 C 22.996094 11.203125 22.925781 11.042969 22.789062 10.933594 C 22.65625 10.820312 22.464844 10.761719 22.21875 10.761719 C 22.0625 10.761719 21.910156 10.78125 21.761719 10.816406 C 21.613281 10.855469 21.46875 10.914062 21.335938 10.984375 L 21.335938 10.570312 C 21.5 10.507812 21.660156 10.460938 21.8125 10.429688 C 21.960938 10.398438 22.113281 10.382812 22.265625 10.382812 C 22.660156 10.382812 22.957031 10.480469 23.152344 10.6875 C 23.347656 10.894531 23.445312 11.203125 23.445312 11.621094 M 24.78125 12.769531 L 24.78125 14.21875 L 24.332031 14.21875 L 24.332031 10.445312 L 24.78125 10.445312 L 24.78125 10.859375 C 24.878906 10.699219 24.996094 10.578125 25.140625 10.5 C 25.285156 10.417969 25.457031 10.378906 25.65625 10.378906 C 25.972656 10.371094 26.277344 10.519531 26.464844 10.773438 C 26.671875 11.039062 26.777344 11.386719 26.777344 11.816406 C 26.777344 12.246094 26.671875 12.589844 26.464844 12.855469 C 26.277344 13.109375 25.972656 13.257812 25.65625 13.25 C 25.457031 13.25 25.28125 13.210938 25.140625 13.132812 C 24.996094 13.054688 24.878906 12.933594 24.78125 12.769531 M 26.3125 11.816406 C 26.3125 11.484375 26.242188 11.226562 26.105469 11.039062 C 25.972656 10.851562 25.785156 10.753906 25.546875 10.753906 C 25.324219 10.746094 25.113281 10.855469 24.984375 11.039062 C 24.851562 11.226562 24.785156 11.484375 24.785156 11.816406 C 24.785156 12.144531 24.851562 12.40625 24.984375 12.59375 C 25.121094 12.78125 25.308594 12.875 25.546875 12.875 C 25.785156 12.875 25.972656 12.78125 26.105469 12.59375 C 26.242188 12.40625 26.3125 12.144531 26.3125 11.816406 "/>
</g>
</svg>
