<?xml version="1.0" encoding="UTF-8"?>
<svg xmlns="http://www.w3.org/2000/svg" xmlns:xlink="http://www.w3.org/1999/xlink" width="px" height="px" viewBox="0 0 30 15" version="1.1">
<g id="surface1">
<path style=" stroke:none;fill-rule:evenodd;fill:rgb(0%,84.705882%,100%);fill-opacity:1;" d="M 7.378906 7.492188 C 7.378906 7.972656 6.988281 8.359375 6.511719 8.359375 C 6.03125 8.359375 5.640625 7.972656 5.640625 7.492188 C 5.640625 7.011719 6.03125 6.625 6.511719 6.625 C 6.988281 6.625 7.378906 7.011719 7.378906 7.492188 Z M 7.378906 7.492188 "/>
<path style="fill:none;stroke-width:24;stroke-linecap:butt;stroke-linejoin:miter;stroke:rgb(0%,84.705882%,100%);stroke-opacity:1;stroke-miterlimit:4;" d="M 269.622936 135.694558 C 336.832087 135.694558 399.530557 145.392523 446.667177 161.630976 C 503.501761 181.026905 538.459541 210.797402 538.459541 237.635956 C 538.459541 265.60218 501.471954 297.176949 440.352223 317.24948 C 394.11774 332.585797 333.449076 340.705023 269.622936 340.705023 C 203.992523 340.705023 141.970655 333.036865 95.285104 317.24948 C 36.195179 296.951415 0.560797 265.151111 0.560797 237.635956 C 0.560797 211.022936 33.939838 181.477973 90.09782 162.082044 C 137.459974 145.392523 201.511648 135.694558 269.622936 135.694558 Z M 269.622936 135.694558 " transform="matrix(0.01732,0,0,0.01732,1.841849,3.376333)"/>
<path style="fill:none;stroke-width:24;stroke-linecap:butt;stroke-linejoin:miter;stroke:rgb(0%,84.705882%,100%);stroke-opacity:1;stroke-miterlimit:4;" d="M 180.762514 186.890791 C 214.36709 128.477468 254.061085 79.085508 291.725274 46.383069 C 337.057621 6.914607 380.134628 -8.421709 403.364636 4.884801 C 427.722315 18.867913 436.518144 66.681135 423.437168 129.830673 C 413.739203 177.41836 390.283661 234.027411 358.257823 289.283256 C 325.555384 346.117841 288.116729 396.186403 250.903609 428.663308 C 203.992523 469.710508 158.434642 484.595756 134.753565 470.838178 C 111.749091 457.531669 102.953262 414.003594 114.004431 355.590271 C 123.251328 306.423845 146.706871 245.755182 180.762514 186.890791 Z M 180.762514 186.890791 " transform="matrix(0.01732,0,0,0.01732,1.841849,3.376333)"/>
<path style="fill:none;stroke-width:24;stroke-linecap:butt;stroke-linejoin:miter;stroke:rgb(0%,84.705882%,100%);stroke-opacity:1;stroke-miterlimit:4;" d="M 180.762514 289.50879 C 147.157939 231.095468 124.153464 172.231077 114.455499 123.290185 C 102.953262 64.20026 111.072488 19.093447 134.302497 5.561403 C 158.660176 -8.421709 204.443591 7.816744 252.482347 50.668216 C 288.793331 82.919587 326.231986 131.409411 358.257823 186.665257 C 391.185797 243.499841 415.76901 301.011028 425.241441 349.275318 C 437.42028 410.620583 427.496781 457.306135 403.815704 471.063712 C 380.81123 484.370222 338.63636 470.38711 293.529547 431.595251 C 255.639824 398.892812 214.818158 348.373181 180.762514 289.50879 Z M 180.762514 289.50879 " transform="matrix(0.01732,0,0,0.01732,1.841849,3.376333)"/>
<path style=" stroke:none;fill-rule:evenodd;fill:rgb(0%,84.705882%,100%);fill-opacity:1;" d="M 16.15625 9.710938 L 15.089844 8.101562 C 15.628906 8.054688 16.113281 7.664062 16.113281 6.953125 C 16.113281 6.226562 15.597656 5.765625 14.878906 5.765625 L 13.292969 5.765625 L 13.292969 9.710938 L 13.78125 9.710938 L 13.78125 8.140625 L 14.570312 8.140625 L 15.574219 9.710938 Z M 14.816406 7.710938 L 13.785156 7.710938 L 13.785156 6.203125 L 14.816406 6.203125 C 15.285156 6.203125 15.605469 6.511719 15.605469 6.957031 C 15.605469 7.398438 15.285156 7.714844 14.816406 7.714844 Z M 17.984375 9.78125 C 18.449219 9.78125 18.835938 9.628906 19.117188 9.34375 L 18.90625 9.054688 C 18.679688 9.285156 18.347656 9.414062 18.023438 9.414062 C 17.410156 9.414062 17.03125 8.964844 16.996094 8.429688 L 19.308594 8.429688 L 19.308594 8.316406 C 19.308594 7.457031 18.796875 6.785156 17.933594 6.785156 C 17.117188 6.785156 16.527344 7.453125 16.527344 8.28125 C 16.527344 9.171875 17.136719 9.78125 17.984375 9.78125 Z M 18.871094 8.101562 L 16.996094 8.101562 C 17.019531 7.664062 17.320312 7.148438 17.929688 7.148438 C 18.582031 7.148438 18.863281 7.675781 18.871094 8.101562 Z M 22.253906 9.710938 L 22.253906 7.746094 C 22.253906 7.054688 21.75 6.785156 21.148438 6.785156 C 20.679688 6.785156 20.3125 6.9375 20.007812 7.257812 L 20.214844 7.566406 C 20.46875 7.292969 20.746094 7.167969 21.089844 7.167969 C 21.503906 7.167969 21.808594 7.386719 21.808594 7.773438 L 21.808594 8.285156 C 21.578125 8.019531 21.253906 7.894531 20.863281 7.894531 C 20.378906 7.894531 19.863281 8.195312 19.863281 8.835938 C 19.863281 9.457031 20.378906 9.78125 20.863281 9.78125 C 21.25 9.78125 21.574219 9.648438 21.808594 9.386719 L 21.808594 9.710938 Z M 21.023438 9.464844 C 20.609375 9.464844 20.320312 9.203125 20.320312 8.84375 C 20.320312 8.476562 20.609375 8.214844 21.023438 8.214844 C 21.335938 8.214844 21.640625 8.332031 21.808594 8.570312 L 21.808594 9.109375 C 21.640625 9.34375 21.335938 9.464844 21.023438 9.464844 Z M 24.398438 9.78125 C 24.917969 9.78125 25.226562 9.570312 25.445312 9.285156 L 25.148438 9.015625 C 24.960938 9.269531 24.71875 9.386719 24.425781 9.386719 C 23.816406 9.386719 23.4375 8.914062 23.4375 8.28125 C 23.4375 7.648438 23.816406 7.179688 24.425781 7.179688 C 24.722656 7.179688 24.964844 7.292969 25.148438 7.554688 L 25.445312 7.28125 C 25.226562 6.996094 24.917969 6.785156 24.398438 6.785156 C 23.546875 6.785156 22.972656 7.433594 22.972656 8.28125 C 22.972656 9.132812 23.546875 9.78125 24.398438 9.78125 Z M 26.789062 9.78125 C 27.046875 9.78125 27.207031 9.707031 27.320312 9.597656 L 27.191406 9.269531 C 27.132812 9.332031 27.015625 9.386719 26.890625 9.386719 C 26.695312 9.386719 26.597656 9.234375 26.597656 9.019531 L 26.597656 7.246094 L 27.179688 7.246094 L 27.179688 6.855469 L 26.597656 6.855469 L 26.597656 6.074219 L 26.15625 6.074219 L 26.15625 6.855469 L 25.683594 6.855469 L 25.683594 7.246094 L 26.15625 7.246094 L 26.15625 9.113281 C 26.15625 9.539062 26.367188 9.785156 26.789062 9.785156 Z M 26.789062 9.78125 "/>
</g>
</svg>
