<?xml version="1.0" encoding="UTF-8"?>
<svg xmlns="http://www.w3.org/2000/svg" xmlns:xlink="http://www.w3.org/1999/xlink" width="800px" height="800px" viewBox="0 0 200 200" version="1.1">
<g id="surface1">
<path style=" stroke:none;fill-rule:nonzero;fill:rgb(0%,0%,0%);fill-opacity:1;" d="M 183.300781 35.699219 C 183.300781 35.699219 186 27.699219 180.199219 22.101562 C 174.898438 16.898438 168 19.699219 168 19.699219 C 161.898438 22.699219 110.398438 54.398438 91.300781 75.398438 C 82.699219 85 70.699219 113.300781 80.398438 123.601562 C 89.601562 133.398438 120 121.898438 128.300781 113.601562 C 148.898438 93 180.398438 41.898438 183.300781 35.699219 Z M 14 176.5 C 37.699219 160.898438 28.601562 142.398438 46.300781 130.101562 C 55.601562 123.601562 68.5 123.898438 77.101562 133 C 83.398438 139.699219 85.101562 158.699219 75.5 167.601562 C 59.800781 182.101562 35.5 183.101562 14 176.5 Z M 14 176.5 "/>
</g>
</svg>
