<?xml version="1.0" encoding="UTF-8"?>
<svg xmlns="http://www.w3.org/2000/svg" xmlns:xlink="http://www.w3.org/1999/xlink" width="800px" height="800px" viewBox="0 0 200 200" version="1.1">
<g id="surface1">
<path style=" stroke:none;fill-rule:nonzero;fill:rgb(0%,0%,0%);fill-opacity:1;" d="M 100 92.5 C 77.300781 92.5 72.699219 58.101562 72.699219 58.101562 C 70 40.199219 78.199219 20 99.699219 20 C 121.300781 20 129.5 40.199219 126.800781 58.101562 C 126.800781 58.101562 122.699219 92.5 100 92.5 Z M 100 118.199219 L 127.199219 100 C 151.101562 100 172.398438 123.300781 172.398438 145.300781 L 172.398438 170.199219 C 172.398438 170.199219 135.898438 181.5 100 181.5 C 63.5 181.5 27.601562 170.199219 27.601562 170.199219 L 27.601562 145.300781 C 27.601562 122.800781 47 100.5 72.300781 100.5 Z M 100 118.199219 "/>
</g>
</svg>
